<svg width="300" height="350" viewBox="0 0 79.375 92.604" xml:space="preserve" xmlns="http://www.w3.org/2000/svg"><path style="fill:none;fill-opacity:.798535;stroke:#000;stroke-width:.0901196;stroke-opacity:1" d="M295.865-18.035h79.285v92.514h-79.285z" transform="translate(-295.82 18.08)"/><g fill="#333"><path d="M64.709 9.042H14.666a2.441 2.441 0 0 0-2.438 2.438v50.043a2.441 2.441 0 0 0 2.438 2.438H64.71a2.441 2.441 0 0 0 2.438-2.438V11.48a2.441 2.441 0 0 0-2.438-2.438zm0 52.99H14.666a.51.51 0 0 1-.51-.51v-6.047l18.037-18.037 17.524 17.524a.962.962 0 0 0 1.364 0 .965.965 0 0 0 0-1.364L32.875 35.392a.96.96 0 0 0-1.363 0L14.156 52.747V11.48a.51.51 0 0 1 .51-.51H64.71a.51.51 0 0 1 .51.51v40.873l-16.962-16.96a.966.966 0 0 0-1.363 0l-3.788 3.787a.964.964 0 0 0 1.363 1.364l3.106-3.106L65.1 54.962c.038.037.078.07.12.1v6.46a.51.51 0 0 1-.51.51z"/><path d="M46.427 21.077a5.438 5.438 0 0 0-5.432-5.432 5.438 5.438 0 0 0-5.43 5.432 5.437 5.437 0 0 0 5.43 5.431 5.437 5.437 0 0 0 5.432-5.431zm-5.432 3.503a3.507 3.507 0 0 1-3.502-3.503 3.507 3.507 0 0 1 3.502-3.503 3.507 3.507 0 0 1 3.503 3.503 3.507 3.507 0 0 1-3.503 3.503z"/></g><text xml:space="preserve" style="font-style:normal;font-weight:400;font-size:6.72039px;line-height:1.25;font-family:sans-serif;fill:#000;fill-opacity:1;stroke:none;stroke-width:.070004" x="313.625" y="60.122" transform="translate(-295.82 18.08)"><tspan style="font-style:normal;font-variant:normal;font-weight:400;font-stretch:normal;font-size:6.72039px;font-family:Calibri;-inkscape-font-specification:Calibri;stroke-width:.070004" x="313.625" y="60.122">No Image found</tspan></text></svg>